<svg width="265" height="106" viewBox="0 0 265 106" fill="none" xmlns="http://www.w3.org/2000/svg">
<path fill-rule="evenodd" clip-rule="evenodd" d="M252.832 17.1562C241.128 14.9092 239.274 14.1373 228.146 6.9083C215.029 -1.68161 215.331 -1.65526 214.604 7.15995C214.315 10.8208 213.959 13.7703 213.808 13.7571C213.658 13.7438 208.538 13.5505 202.397 13.2029C173.071 11.6825 169.1 11.5578 155.045 12.1492C129.28 13.2495 108.859 21.7116 94.6554 37.2595C93.8255 38.1481 91.8136 38.6123 88.4336 38.6998C74.31 38.9966 55.8259 46.0263 38.4985 57.6453C21.0428 69.3492 6.82854 84.6396 2.1332 94.8368C-1.45558 102.567 0.259597 112.783 12.7359 96.7948C29.7768 74.9573 57.0456 55.5897 80.127 48.836C88.7127 46.3213 88.7127 46.3213 86.9522 53.2185C80.3756 78.7648 107.955 103.916 136.73 98.5603C169.028 92.4567 154.335 50.7444 116.441 41.1302C112.835 40.2361 109.717 39.3209 109.485 39.1723C108.907 38.8009 114.729 34.3443 119.449 31.5218C137.119 20.9586 153.578 18.3989 193.645 20.1266C215.484 21.0209 213.572 20.2114 213.333 29.0054C212.81 44.4738 217.862 48.2195 229.438 40.9351C236.502 36.5236 243.071 33.3832 255.9 28.3245C268.542 23.3136 267.622 19.9631 252.832 17.1562ZM139.799 59.7239C146.4 68.4782 143.923 82.5247 134.689 88.6366C124.999 95.1252 103.467 89.5779 98.2335 79.2771C92.7362 68.4722 97.3056 46.4043 105.064 46.285C120.115 46.1658 133.417 51.2773 139.799 59.7239Z" fill="#D9A503"/>
</svg>
