<svg width="374" height="204" viewBox="0 0 374 204" fill="none" xmlns="http://www.w3.org/2000/svg">
<path d="M38.4845 25.6192C56.9165 38.5824 73.9303 35.1394 94.793 13.8717C111.605 -3.14254 123.96 -4.35826 139.557 9.41515C164.673 31.4931 183.308 35.1386 200.322 21.1626C219.767 5.16119 223.21 3.13488 231.515 3.13488C241.034 3.13488 246.301 5.76844 252.985 13.6679C270.809 34.7331 289.849 35.5433 312.737 15.6934C335.625 -4.15651 364.793 1.71783 344.74 22.1754C319.219 48.1018 278.911 54.9889 246.301 38.7849L231.717 31.4919L218.957 37.9739C195.461 50.1269 149.482 46.6831 127.809 31.4919L122.34 27.6447L112.618 34.5301C81.4249 56.6081 0 50.5324 0 26.2264C0 16.0989 24.306 15.6942 38.4845 25.6192Z" fill="#D9A503"/>
<path d="M92.7676 92.8672C107.554 81.5244 116.263 76.2565 145.431 94.0805C172.775 110.69 181.687 110.284 210.044 91.0422C226.654 79.6998 233.135 79.9016 257.846 92.2575C286.406 106.639 308.281 106.639 317.193 92.2575C324.283 80.9143 354.463 80.1053 354.463 91.4473C354.463 114.538 287.216 127.906 250.96 111.905L233.338 104.208L223.615 110.284C197.689 126.083 159.407 126.691 129.632 111.5L119.099 106.033L103.098 113.323C64.4108 130.945 19.4445 130.541 2.63284 112.109C-5.87426 102.59 16.4062 98.9417 34.6357 106.639C50.6372 113.525 72.5126 108.464 92.7676 92.8672Z" fill="#D9A503"/>
<path d="M266.353 160.721C302.407 177.128 314.965 176.721 334.815 159.301C361.349 135.806 389.098 144.11 364.387 168.011C338.258 193.532 291.874 196.976 251.162 176.316L241.237 171.252L228.476 178.341C202.752 192.52 168.521 195.355 140.772 185.633L129.429 181.582L118.896 188.266C89.9318 206.698 44.5602 208.521 19.8491 192.317C-1.62116 178.139 18.634 169.024 43.7502 181.379C56.7134 187.861 66.2335 188.876 77.3737 185.027C83.6528 182.799 88.1085 180.164 107.958 165.581C117.478 158.694 134.493 159.301 150.089 166.998C173.99 179.151 194.245 176.113 217.944 156.871C228.881 148.364 241.034 149.176 266.353 160.721Z" fill="#D9A503"/>
</svg>
